<svg width="253" height="29" viewBox="0 0 253 29" fill="none" xmlns="http://www.w3.org/2000/svg">
<path d="M54.8195 24.0335V7.2876H58.4478V13.8464H61.7272L67.2161 7.2876H70.984V8.54354L65.0066 15.6605L70.984 22.7776V24.0335H67.2161L61.7272 17.4747H58.4478V24.0335H54.8195Z" fill="white"/>
<path d="M73.3999 18.94V15.3814H83.0986V18.94H73.3999Z" fill="white"/>
<path d="M91.0669 24.0335V10.9159H84.5081V7.2876H101.254V10.9159H94.6951V24.0335H91.0669Z" fill="white"/>
<path d="M115.995 24.0335L111.134 18.2422H115.855L119.716 22.8008V24.0335H115.995ZM102.993 24.0335V7.31086H116.274C116.91 7.31086 117.483 7.46591 117.995 7.77602C118.522 8.08613 118.941 8.50478 119.251 9.03196C119.576 9.55915 119.739 10.1329 119.739 10.7531V15.0791C119.739 15.6993 119.576 16.273 119.251 16.8002C118.941 17.3274 118.522 17.746 117.995 18.0561C117.483 18.3663 116.91 18.5213 116.274 18.5213L106.598 18.5446V24.0335H102.993ZM106.598 14.893H116.088V10.9159H106.598V14.893Z" fill="white"/>
<path d="M122.232 24.0335V10.7298C122.232 10.0941 122.388 9.52038 122.698 9.0087C123.008 8.48152 123.426 8.06287 123.954 7.75276C124.481 7.44265 125.054 7.2876 125.675 7.2876H135.513C136.149 7.2876 136.722 7.44265 137.234 7.75276C137.761 8.06287 138.18 8.48152 138.49 9.0087C138.816 9.52038 138.978 10.0941 138.978 10.7298V24.0335H135.327V18.6376H125.837V24.0335H122.232ZM125.837 15.0093H135.327V10.9159H125.837V15.0093Z" fill="white"/>
<path d="M141.628 24.0335V7.2876H145.35L154.723 18.4515V7.2876H158.374V24.0335H154.653L145.233 12.823V24.0335H141.628Z" fill="white"/>
<path d="M164.376 24.0335C163.755 24.0335 163.182 23.8784 162.654 23.5683C162.127 23.2582 161.709 22.8396 161.399 22.3124C161.088 21.7852 160.933 21.2115 160.933 20.5913V19.033H164.538V20.4052H174.028V17.4747H164.376C163.755 17.4747 163.182 17.3196 162.654 17.0095C162.127 16.6994 161.709 16.2885 161.399 15.7768C161.088 15.2497 160.933 14.6682 160.933 14.0325V10.7298C160.933 10.0941 161.088 9.52038 161.399 9.0087C161.709 8.48152 162.127 8.06287 162.654 7.75276C163.182 7.44265 163.755 7.2876 164.376 7.2876H174.237C174.857 7.2876 175.423 7.44265 175.935 7.75276C176.462 8.06287 176.881 8.48152 177.191 9.0087C177.516 9.52038 177.679 10.0941 177.679 10.7298V12.2881H174.028V10.9159H164.538V13.8464H174.237C174.857 13.8464 175.423 14.0015 175.935 14.3116C176.462 14.6217 176.881 15.0403 177.191 15.5675C177.516 16.0792 177.679 16.6529 177.679 17.2886V20.5913C177.679 21.2115 177.516 21.7852 177.191 22.3124C176.881 22.8396 176.462 23.2582 175.935 23.5683C175.423 23.8784 174.857 24.0335 174.237 24.0335H164.376Z" fill="white"/>
<path d="M180.241 24.0335V7.31086H193.521C194.157 7.31086 194.73 7.46591 195.242 7.77602C195.769 8.08613 196.188 8.50478 196.498 9.03196C196.824 9.55915 196.986 10.1329 196.986 10.7531V15.0791C196.986 15.6993 196.824 16.273 196.498 16.8002C196.188 17.3274 195.769 17.746 195.242 18.0561C194.73 18.3663 194.157 18.5213 193.521 18.5213L183.846 18.5446V24.0335H180.241ZM183.846 14.893H193.335V10.9159H183.846V14.893Z" fill="white"/>
<path d="M202.034 24.0335C201.414 24.0335 200.84 23.8784 200.313 23.5683C199.786 23.2582 199.367 22.8396 199.057 22.3124C198.747 21.7852 198.592 21.2115 198.592 20.5913V10.7298C198.592 10.0941 198.747 9.52038 199.057 9.0087C199.367 8.48152 199.786 8.06287 200.313 7.75276C200.84 7.44265 201.414 7.2876 202.034 7.2876H211.895C212.516 7.2876 213.082 7.44265 213.593 7.75276C214.12 8.06287 214.539 8.48152 214.849 9.0087C215.175 9.52038 215.338 10.0941 215.338 10.7298V20.5913C215.338 21.2115 215.175 21.7852 214.849 22.3124C214.539 22.8396 214.12 23.2582 213.593 23.5683C213.082 23.8784 212.516 24.0335 211.895 24.0335H202.034ZM202.197 20.4052H211.686V10.9159H202.197V20.4052Z" fill="white"/>
<path d="M230.9 24.0335L226.039 18.2422H230.761L234.622 22.8008V24.0335H230.9ZM217.899 24.0335V7.31086H231.179C231.815 7.31086 232.389 7.46591 232.9 7.77602C233.428 8.08613 233.846 8.50478 234.156 9.03196C234.482 9.55915 234.645 10.1329 234.645 10.7531V15.0791C234.645 15.6993 234.482 16.273 234.156 16.8002C233.846 17.3274 233.428 17.746 232.9 18.0561C232.389 18.3663 231.815 18.5213 231.179 18.5213L221.504 18.5446V24.0335H217.899ZM221.504 14.893H230.993V10.9159H221.504V14.893Z" fill="white"/>
<path d="M242.813 24.0335V10.9159H236.254V7.2876H253V10.9159H246.441V24.0335H242.813Z" fill="white"/>
<path d="M20.5539 8.35693H22.5599C23.2484 8.35693 23.8578 8.80252 24.0666 9.45861L25.2971 13.326H20.5539V8.35693Z" fill="#FAA701"/>
<path d="M34.1059 18.9727C33.8564 18.9727 33.6542 19.1749 33.6542 19.4244V20.5537C33.6542 20.8032 33.8564 21.0055 34.1059 21.0055H36.347C36.6739 21.0055 36.8926 20.669 36.7598 20.3703L36.3772 19.5092C36.2321 19.1829 35.9086 18.9727 35.5515 18.9727H34.1059Z" fill="#FAA701"/>
<path d="M36.9073 16.1171C36.8589 15.7138 37.1738 15.3588 37.58 15.3588H43.1405C43.5148 15.3588 43.8181 15.6622 43.8181 16.0364V20.3279C43.8181 20.7021 43.5148 21.0055 43.1405 21.0055H38.095C37.752 21.0055 37.4631 20.7492 37.4223 20.4086L36.9073 16.1171Z" fill="#FAA701"/>
<path d="M34.5576 8.35693H25.2971L27.104 13.326H36.3646L34.5576 8.35693Z" fill="#FAA701"/>
<path fill-rule="evenodd" clip-rule="evenodd" d="M23.2643 0H9.93813V21.2315H1.12933V23.2643H0V25.2971H0.91035C1.02689 27.1878 2.59722 28.6852 4.51728 28.6852C6.43734 28.6852 8.00766 27.1878 8.12421 25.2971H8.36393C8.48047 27.1878 10.0508 28.6852 11.9709 28.6852C13.8909 28.6852 15.4612 27.1878 15.5778 25.2971H16.4952C16.6118 27.1877 18.1821 28.6851 20.1021 28.6851C22.0222 28.6851 23.5925 27.1877 23.7091 25.2971H25.7557C25.8723 27.1878 27.4426 28.6852 29.3626 28.6852C31.2827 28.6852 32.853 27.1878 32.9696 25.2971L36.3645 25.2971C36.3645 27.1682 37.8813 28.6851 39.7525 28.6851C41.6236 28.6851 43.1405 27.1682 43.1405 25.2971L46.0768 25.2971V23.2643H32.74C32.3674 22.1841 31.4571 21.4574 29.3626 21.4574C27.2682 21.4574 26.3579 22.1841 25.9853 23.2643H16.2624V2.25867H23.2643V0ZM28.6851 27.3298C29.5583 27.3298 30.2661 26.3691 30.2661 25.1841C30.2661 23.999 29.5583 23.0383 28.6851 23.0383C27.8119 23.0383 27.104 23.999 27.104 25.1841C27.104 26.3691 27.8119 27.3298 28.6851 27.3298ZM12.8743 25.1841C12.8743 26.3691 12.1665 27.3298 11.2933 27.3298C10.4201 27.3298 9.71221 26.3691 9.71221 25.1841C9.71221 23.999 10.4201 23.0383 11.2933 23.0383C12.1665 23.0383 12.8743 23.999 12.8743 25.1841ZM3.83969 27.3298C4.71289 27.3298 5.42076 26.3691 5.42076 25.1841C5.42076 23.999 4.71289 23.0383 3.83969 23.0383C2.96649 23.0383 2.25863 23.999 2.25863 25.1841C2.25863 26.3691 2.96649 27.3298 3.83969 27.3298Z" fill="white"/>
</svg>
